<?xml version="1.0" encoding="UTF-8"?>
<!DOCTYPE svg PUBLIC "-//W3C//DTD SVG 1.1//EN" "http://www.w3.org/Graphics/SVG/1.1/DTD/svg11.dtd">
<!-- Creator: CorelDRAW 2019 (64-Bit) -->
<svg xmlns="http://www.w3.org/2000/svg" xml:space="preserve" width="6cm" height="1.7cm" version="1.1" shape-rendering="geometricPrecision" text-rendering="geometricPrecision" image-rendering="optimizeQuality" fill-rule="evenodd" clip-rule="evenodd"
viewBox="0 0 6000 1700"
 xmlns:xlink="http://www.w3.org/1999/xlink">
 <g id="Layer_x0020_1">
  <metadata id="CorelCorpID_0Corel-Layer"/>
  <path fill="#FEFEFE" fill-rule="nonzero" d="M700 758l-154 0 0 556c0,36 20,54 61,54l91 0 0 306 -208 0c-240,0 -360,-101 -360,-304l0 -613 -135 0 0 -306 135 0 0 -240 417 0 0 240 154 0 0 306zm458 -306l299 0c240,0 360,101 360,304l0 417 -625 0 0 162c0,36 20,54 61,54l108 0c41,0 61,-20 61,-59l0 -69 395 0 0 110c0,203 -120,304 -360,304l-299 0c-240,0 -360,-101 -360,-304l0 -615c0,-203 120,-304 360,-304zm34 495l230 0 0 -154c0,-36 -20,-54 -61,-54l-108 0c-41,0 -61,18 -61,54l0 154zm1620 436l0 292 -909 0 0 -292 439 -640 -407 0 0 -292 853 0 0 292 -446 640 471 0zm755 -931l44 0c217,0 326,101 326,304l0 615c0,203 -109,304 -326,304l-44 0c-126,0 -200,-52 -223,-157l0 157 -409 0 0 -1640 417 0 0 549c31,-88 103,-132 216,-132zm-47 863l0 -502c0,-36 -20,-54 -61,-54l-42 0c-44,0 -66,25 -66,74l0 463c0,49 22,74 66,74l42 0c41,0 61,-18 61,-54zm1157 -863l409 0 0 1223 -417 0 0 -132c-31,88 -103,132 -216,132l-44 0c-217,0 -326,-101 -326,-304l0 -615c0,-203 109,-304 326,-304l44 0c126,0 200,52 223,157l0 -157zm-115 917l42 0c44,0 66,-25 66,-74l0 -463c0,-49 -22,-74 -66,-74l-42 0c-41,0 -61,18 -61,54l0 502c0,36 20,54 61,54zm1395 -929l37 0 0 363 -140 0c-103,0 -154,56 -154,167l0 706 -417 0 0 -1223 409 0 0 189c13,-62 42,-111 88,-147 46,-36 105,-54 176,-54z"/>
 </g>
</svg>
