<svg id="Layer_1" data-name="Layer 1" xmlns="http://www.w3.org/2000/svg" xmlns:xlink="http://www.w3.org/1999/xlink" viewBox="0 0 2758.92 3177"><defs><linearGradient id="linear-gradient" x1="700.09" y1="1102.66" x2="2408.42" y2="1102.66" gradientTransform="matrix(1, 0, 0, -1, -474.32, 2857.03)" gradientUnits="userSpaceOnUse"><stop offset="0" stop-color="#ff9085"/><stop offset="1" stop-color="#fb6fbb"/></linearGradient><linearGradient id="linear-gradient-2" x1="1563.33" y1="2169.75" x2="1417.42" y2="850.95" gradientTransform="matrix(1, 0, 0, -1, -474.32, 2857.03)" gradientUnits="userSpaceOnUse"><stop offset="0" stop-color="#40447e"/><stop offset="1" stop-color="#3c3b6b"/></linearGradient><linearGradient id="linear-gradient-3" x1="590.23" y1="820.03" x2="4575.68" y2="820.03" gradientTransform="matrix(1, 0, 0, -1, 0, 3178)" gradientUnits="userSpaceOnUse"><stop offset="0" stop-color="#aa80f9"/><stop offset="1" stop-color="#6165d7"/></linearGradient><linearGradient id="linear-gradient-4" x1="590.23" y1="688.66" x2="4575.68" y2="688.66" xlink:href="#linear-gradient-3"/><linearGradient id="linear-gradient-5" x1="590.23" y1="557.27" x2="4575.68" y2="557.27" xlink:href="#linear-gradient-3"/><linearGradient id="linear-gradient-6" x1="5517.72" y1="1076.8" x2="5154.03" y2="462.57" gradientTransform="matrix(1, 0, 0, -1, -3496.81, 2857.03)" gradientUnits="userSpaceOnUse"><stop offset="0" stop-color="#ffc444"/><stop offset="0.31" stop-color="#fba94a"/><stop offset="1" stop-color="#f36f56"/></linearGradient><linearGradient id="linear-gradient-7" x1="5850.48" y1="1061.89" x2="5473.25" y2="424.79" xlink:href="#linear-gradient-6"/><linearGradient id="linear-gradient-8" x1="5977.06" y1="621.65" x2="5383.11" y2="-381.48" xlink:href="#linear-gradient-6"/><linearGradient id="linear-gradient-9" x1="5446.23" y1="619.48" x2="4893.11" y2="-314.67" xlink:href="#linear-gradient-6"/><linearGradient id="linear-gradient-10" x1="-3269.67" y1="1008.82" x2="-2987.53" y2="-344.23" gradientTransform="matrix(1, 0, 0, -1, 4159.8, 2857.03)" xlink:href="#linear-gradient-3"/><linearGradient id="linear-gradient-11" x1="7798.99" y1="-53.3" x2="7896.69" y2="-53.3" gradientTransform="translate(8571.02 2793.6) rotate(178.28)" gradientUnits="userSpaceOnUse"><stop offset="0" stop-color="#444b8c"/><stop offset="1" stop-color="#26264f"/></linearGradient><linearGradient id="linear-gradient-12" x1="7557.49" y1="-193.08" x2="7592.53" y2="-193.08" gradientTransform="translate(8266.96 2857.03) rotate(180)" gradientUnits="userSpaceOnUse"><stop offset="0" stop-color="#ffc444"/><stop offset="1" stop-color="#f36f56"/></linearGradient><linearGradient id="linear-gradient-13" x1="7836.22" y1="1300.92" x2="7940.05" y2="1300.92" gradientTransform="matrix(-0.96, 0.27, -0.27, -0.96, 8991.68, 2179)" xlink:href="#linear-gradient-11"/><linearGradient id="linear-gradient-14" x1="7245.12" y1="-181.52" x2="7288.39" y2="-181.52" xlink:href="#linear-gradient-12"/><linearGradient id="linear-gradient-15" x1="-3104.14" y1="-28.02" x2="-3381.07" y2="596.26" gradientTransform="matrix(1, 0, 0, -1, 4159.8, 2857.03)" xlink:href="#linear-gradient-2"/><linearGradient id="linear-gradient-16" x1="-3542.54" y1="600.77" x2="-3819.47" y2="1225.04" gradientTransform="matrix(0.99, -0.12, -0.12, -0.99, 4491.73, 3074.06)" xlink:href="#linear-gradient-2"/><linearGradient id="linear-gradient-17" x1="-3525.81" y1="955.42" x2="-3243.67" y2="-397.63" gradientTransform="matrix(1, 0, 0, -1, 4159.8, 2857.03)" xlink:href="#linear-gradient-3"/><linearGradient id="linear-gradient-18" x1="-3603.17" y1="100.3" x2="-3479.33" y2="688.57" gradientTransform="matrix(1, 0, 0, -1, 4159.8, 2857.03)" xlink:href="#linear-gradient-3"/><linearGradient id="linear-gradient-19" x1="-3708.76" y1="1077.4" x2="-3485.58" y2="7.12" gradientTransform="matrix(1, 0, 0, -1, 4159.8, 2857.03)" xlink:href="#linear-gradient-3"/><linearGradient id="linear-gradient-20" x1="-3267.87" y1="611.51" x2="-3320.68" y2="761.12" gradientTransform="matrix(1, 0, 0, -1, 4159.8, 2857.03)" gradientUnits="userSpaceOnUse"><stop offset="0" stop-color="#311944"/><stop offset="1" stop-color="#893976"/></linearGradient><linearGradient id="linear-gradient-21" x1="-3498.57" y1="828.28" x2="-3479.2" y2="694.5" xlink:href="#linear-gradient-20"/><linearGradient id="linear-gradient-22" x1="7497.15" y1="807.29" x2="7606.58" y2="807.29" xlink:href="#linear-gradient-12"/><linearGradient id="linear-gradient-23" x1="-3114.92" y1="816.55" x2="-3217.87" y2="962.74" gradientTransform="matrix(1, 0, 0, -1, 4159.8, 2857.03)" xlink:href="#linear-gradient-11"/><linearGradient id="linear-gradient-24" x1="-3312.39" y1="574.62" x2="-3087.08" y2="1032.27" xlink:href="#linear-gradient-20"/><linearGradient id="linear-gradient-25" x1="-3422.49" y1="868.33" x2="-2927.54" y2="868.33" xlink:href="#linear-gradient-20"/><linearGradient id="linear-gradient-26" x1="7026.95" y1="751.3" x2="7100.78" y2="751.3" xlink:href="#linear-gradient-12"/><linearGradient id="linear-gradient-27" x1="7586.14" y1="1352.12" x2="7567.26" y2="1031.24" xlink:href="#linear-gradient-12"/><linearGradient id="linear-gradient-28" x1="7689.87" y1="1383.38" x2="7615.97" y2="1571.09" gradientTransform="translate(8344.82 3019.95) rotate(180)" gradientUnits="userSpaceOnUse"><stop offset="0" stop-color="#311944"/><stop offset="1" stop-color="#6b3976"/></linearGradient><linearGradient id="linear-gradient-29" x1="7504.62" y1="1313" x2="7599.32" y2="1313" xlink:href="#linear-gradient-12"/><linearGradient id="linear-gradient-30" x1="7667.16" y1="1374.33" x2="7593.18" y2="1562.23" xlink:href="#linear-gradient-28"/><linearGradient id="linear-gradient-31" x1="7513.73" y1="1296.73" x2="7534.54" y2="1296.73" xlink:href="#linear-gradient-12"/><linearGradient id="linear-gradient-32" x1="2097.56" y1="280" x2="1897.72" y2="-101.31" gradientTransform="matrix(1, 0, 0, -1, -474.32, 2857.03)" xlink:href="#linear-gradient-3"/><linearGradient id="linear-gradient-33" x1="1957.88" y1="-6.89" x2="1728.52" y2="-281.85" gradientTransform="matrix(1, 0, 0, -1, -474.32, 2857.03)" gradientUnits="userSpaceOnUse"><stop offset="0" stop-color="#e38ddd"/><stop offset="1" stop-color="#9571f6"/></linearGradient><linearGradient id="linear-gradient-34" x1="2296.22" y1="1567.44" x2="3075.65" y2="1567.44" gradientTransform="matrix(1, 0, 0, -1, -474.32, 2857.03)" xlink:href="#linear-gradient-3"/><linearGradient id="linear-gradient-35" x1="966.17" y1="2648.69" x2="1380.22" y2="2648.69" gradientTransform="matrix(1, 0, 0, -1, -474.32, 2857.03)" xlink:href="#linear-gradient-3"/><linearGradient id="linear-gradient-36" x1="1627.06" y1="2648.69" x2="2041.11" y2="2648.69" gradientTransform="matrix(1, 0, 0, -1, -474.32, 2857.03)" xlink:href="#linear-gradient-3"/><linearGradient id="linear-gradient-37" x1="2327.35" y1="2648.69" x2="2741.4" y2="2648.69" gradientTransform="matrix(1, 0, 0, -1, -474.32, 2857.03)" xlink:href="#linear-gradient-3"/></defs><g id="Illustration"><path d="M2427,2793.3c-71.81,74-136.07,117.53-185.26,150.38-479.8,320.37-1028.27,228-1197.84,196.47-273.58-50.92-504.53-86.84-702.95-266.11C-109.93,2466.7-88,1617,256.52,1090.56c40.85-62.41,384.85-572.32,934.5-644.17,13.45-1.76,23.48-2.76,32.26-3.69,85-9,612-56.52,1041.59,303.44,61.5,51.52,160.48,144.46,252.26,286.21C2852.68,1550.65,2853.78,2353.37,2427,2793.3Z" transform="translate(0 0)" fill="#f4f7fa"/><path d="M1823,640.55,354.92,595.31C283.78,593.12,225.77,645,225.77,711.14V2803c0,66.17,58,115.43,129.15,110.06L1823,2802.33c61.5-4.65,111.08-57.85,111.08-118.86v-1929C1934.1,693.43,1884.52,642.44,1823,640.55Z" transform="translate(0 0)" fill="url(#linear-gradient)"/><path d="M267.17,2812.54V699.74c0-38.08,33.36-68,74.38-66.79l1493.13,43.4c35.46,1,64.12,30.44,64.12,65.68V2697.41c0,35.24-28.66,65.93-64.12,68.54L341.55,2876C300.53,2879,267.17,2850.61,267.17,2812.54Z" transform="translate(0 0)" fill="#fff" opacity="0.74" style="isolation:isolate"/><path d="M1823,640.55,354.92,595.31C283.78,593.12,225.77,645,225.77,711.14v85.94L1934.1,833.69V754.45C1934.1,693.43,1884.52,642.44,1823,640.55Z" transform="translate(0 0)" fill="url(#linear-gradient-2)"/><path d="M455.1,705.47c0,21.42-18.66,38.35-41.71,37.79s-41.88-18.45-41.88-40,18.77-38.43,41.88-37.79S455.1,684,455.1,705.47Z" transform="translate(0 0)" fill="#fff"/><path d="M600.36,709.23c0,21.28-18.41,38.09-41.16,37.54s-41.32-18.31-41.32-39.68,18.52-38.18,41.32-37.54S600.36,687.94,600.36,709.23Z" transform="translate(0 0)" fill="#fff"/><path d="M743.68,712.93c0,21.15-18.17,37.85-40.62,37.31s-40.77-18.19-40.77-39.41,18.28-37.93,40.77-37.3S743.68,691.79,743.68,712.93Z" transform="translate(0 0)" fill="#fff"/><path d="M1060,1234l-604.26-1c-9.85,0-17.84-7.35-17.84-16.39v-38.44c0-9,8-16.31,17.84-16.26l604.26,3.39c9.18.06,16.61,7.16,16.61,15.86v37.06C1076.6,1226.93,1069.17,1234,1060,1234Z" transform="translate(0 0)" fill="#fff"/><path d="M479.17,1247.49l52,190.52c3.28,12,15,20.38,28.54,20.23L962,1453.72c12.86-.15,24-8.52,27.17-20.32l49-185.48Zm149.11,179.35c0,7.55-6.62,13.75-14.79,13.83l-14.12.15c-8.2.08-14.85-6-14.85-13.57V1279.59c0-7.58,6.65-13.72,14.85-13.73h14.12c8.17,0,14.79,6.12,14.79,13.68Zm78.51-.75c0,7.53-6.57,13.69-14.67,13.78l-14,.14c-8.12.08-14.71-6-14.71-13.51v-147c0-7.54,6.59-13.66,14.71-13.66h14c8.1,0,14.67,6.09,14.67,13.62Zm77.8-.74c0,7.49-6.51,13.63-14.53,13.72l-13.87.14c-8,.08-14.58-5.94-14.58-13.45V1279.42c0-7.51,6.53-13.6,14.58-13.6h13.87c8,0,14.53,6.06,14.53,13.56Zm77.11-.73c0,7.46-6.45,13.57-14.4,13.65l-13.75.14c-8,.09-14.45-5.91-14.45-13.38V1279.34c0-7.48,6.47-13.54,14.45-13.54H847.3c8,0,14.4,6,14.4,13.5Zm76.43-.72c0,7.42-6.39,13.51-14.28,13.59l-13.62.14c-7.91.08-14.33-5.89-14.33-13.33v-145c0-7.45,6.42-13.48,14.33-13.48h13.62c7.89,0,14.28,6,14.28,13.44Z" transform="translate(0 0)" fill="#fff"/><path d="M547.05,1143a23.43,23.43,0,0,1-31.14-2.18,19.19,19.19,0,0,1,.38-27.15,18.28,18.28,0,0,1,1.76-1.52,23.45,23.45,0,0,1,31.14,2.23,19.19,19.19,0,0,1-.42,27.14A20.3,20.3,0,0,1,547.05,1143Z" transform="translate(0 0)" fill="#fff"/><path d="M741,962c-3-3.29-9.28-2.93-14,.8L535.68,1114.76c-4.8,3.81-6.18,9.58-3.09,12.88s9.51,2.87,14.3-.94L738,974.7C742.68,971,744,965.31,741,962Z" transform="translate(0 0)" fill="#fff"/><path d="M973.94,1145.92c8.73,7.24,22,6.46,29.54-1.72a19.06,19.06,0,0,0-.88-26.94c-.36-.34-.73-.66-1.12-1-8.71-7.26-21.94-6.52-29.55,1.66a19.09,19.09,0,0,0,.87,27Q973.36,1145.46,973.94,1145.92Z" transform="translate(0 0)" fill="#fff"/><path d="M785.23,962.78c3-3.17,9.23-2.6,13.89,1.27l185.66,154.44c4.56,3.79,5.87,9.43,2.93,12.6s-9,2.66-13.59-1.13L788.22,975.55C783.56,971.68,782.22,966,785.23,962.78Z" transform="translate(0 0)" fill="#fff"/><polygon points="1763.6 1052.32 1140.49 1044.36 1140.49 966.79 1763.6 977.61 1763.6 1052.32" fill="#fff"/><polygon points="1763.6 1183.12 1140.49 1180.14 1140.49 1102.59 1763.6 1108.4 1763.6 1183.12" fill="#fff"/><polygon points="1763.6 1313.91 1140.49 1315.93 1140.49 1238.38 1763.6 1239.2 1763.6 1313.91" fill="#fff"/><polygon points="1763.6 1444.71 1140.49 1451.71 1140.49 1374.16 1763.6 1370.01 1763.6 1444.71" fill="#fff"/><polygon points="1542.72 1660.15 437.89 1686.77 437.89 1605.99 1542.72 1584.43 1542.72 1660.15" fill="#fff"/><polygon points="1542.72 1792.72 437.89 1828.17 437.89 1747.4 1542.72 1717.01 1542.72 1792.72" fill="#fff"/><polygon points="1542.72 1925.3 437.89 1969.59 437.89 1888.82 1542.72 1849.58 1542.72 1925.3" fill="#fff"/><polygon points="1542.72 2057.86 437.89 2110.99 437.89 2030.21 1542.72 1982.13 1542.72 2057.86" fill="#fff"/><polygon points="1763.6 1654.84 1618.26 1658.34 1618.26 1582.95 1763.6 1580.13 1763.6 1654.84" fill="#fff"/><polygon points="1763.6 1785.63 1618.26 1790.3 1618.26 1714.92 1763.6 1710.92 1763.6 1785.63" fill="#fff"/><polygon points="1763.6 1916.43 1618.26 1922.27 1618.26 1846.88 1763.6 1841.72 1763.6 1916.43" fill="#fff"/><polygon points="1763.6 2047.23 1618.26 2054.22 1618.26 1978.86 1763.6 1972.53 1763.6 2047.23" fill="#fff"/><polygon points="1542.72 2272.99 437.89 2340.47 437.89 2259.7 1542.72 2197.28 1542.72 2272.99" fill="#fff"/><polygon points="1542.72 2405.55 437.89 2481.86 437.89 2401.09 1542.72 2329.84 1542.72 2405.55" fill="#fff"/><polygon points="1542.72 2538.13 437.89 2623.28 437.89 2542.51 1542.72 2462.41 1542.72 2538.13" fill="#fff"/><polygon points="1542.72 2670.7 437.89 2764.68 437.89 2683.91 1542.72 2594.97 1542.72 2670.7" fill="#fff"/><polygon points="1763.6 2259.51 1618.26 2268.38 1618.26 2193.01 1763.6 2184.8 1763.6 2259.51" fill="#fff"/><polygon points="1763.6 2390.3 1618.26 2400.34 1618.26 2324.97 1763.6 2315.59 1763.6 2390.3" fill="url(#linear-gradient-3)"/><polygon points="1763.6 2521.11 1618.26 2532.3 1618.26 2456.93 1763.6 2446.39 1763.6 2521.11" fill="url(#linear-gradient-4)"/><polygon points="1763.6 2651.91 1618.26 2664.28 1618.26 2588.89 1763.6 2577.2 1763.6 2651.91" fill="url(#linear-gradient-5)"/><polygon points="2016.78 2331.66 1685.4 2291.16 1685.4 1802.41 2016.78 1739.64 2016.78 2331.66" fill="url(#linear-gradient-6)"/><polygon points="2420.99 2305.91 2016.78 2331.66 2016.78 1739.64 2420.99 1795.45 2420.99 2305.91" fill="url(#linear-gradient-7)"/><polygon points="2169.15 1760.68 2169.15 2002.08 2303.71 2012.8 2303.71 1779.27 2169.15 1760.68" fill="#fff"/><polygon points="2566.21 3037.89 1951.47 3081.14 1951.47 2180.76 2566.21 2223.99 2566.21 3037.89" fill="url(#linear-gradient-8)"/><polygon points="1951.47 3081.14 1447.48 3019.51 1447.48 2238.24 1951.47 2180.76 1951.47 3081.14" fill="url(#linear-gradient-9)"/><polygon points="2169.09 2196.07 2169.09 2561.41 2375.06 2561.41 2375.06 2210.55 2169.09 2196.07" fill="#fff"/><path d="M1023.09,1890.77c28.39-30.31-50.2-144.19-92.27-194.09-36.75-43.59-74.52-88.4-120.9-82.73-40.73,5-80.36,47.93-82.73,89.09C720.8,1813.78,982.73,1933.86,1023.09,1890.77Z" transform="translate(0 0)" fill="url(#linear-gradient-10)"/><path d="M682.22,3061c-5.35,4.34-6.33,15.19-7,22.28-.29,3.17-.43,4.75-.08,5.87,2.58,8.16,18.41,9,43.23,11.56,39.22,4,50.89,7.09,54,1.26,2.88-5.47-4.08-14.43-4.87-15.42-4.21-5.31-9.38-7.24-19.38-10.53-18.51-6.09-31-9.43-34.8-10.43C689.68,3059.23,685.73,3058.11,682.22,3061Z" transform="translate(0 0)" fill="url(#linear-gradient-11)"/><path d="M705.54,3025.13l3.93,44.69c-1.12,2.16-14.4,8.63-25,3.08L674.39,3029Z" transform="translate(0 0)" fill="url(#linear-gradient-12)"/><path d="M993.28,3055.21c-6.41,7.08-7.87,20.1-2.3,26.52s13.71,1.58,37.06,2.27c25,.75,31.54,6.66,48.53,2,6.87-1.9,19-6.5,18.76-11.41-.16-3.44-6.33-5.22-27-12.13-29.27-9.81-29.14-10.34-35.36-11.37C1017.41,3048.47,1001.74,3045.87,993.28,3055.21Z" transform="translate(0 0)" fill="url(#linear-gradient-13)"/><path d="M1009.3,3014.42l12.54,41.73c-.94,2.24-13.7,9.7-24.64,5l-18.63-40.49Z" transform="translate(0 0)" fill="url(#linear-gradient-14)"/><path d="M897.85,2100.57a3908.13,3908.13,0,0,0,123.51,926l-48,12.92c-40.61-37.86-91.83-97.46-116.54-181.68-15.34-52.28-10.23-79.14-20-143.43-15.49-102.38-46.87-156-79.31-238.56-29.15-74.18-63.6-183.05-82.07-328.58Z" transform="translate(0 0)" fill="url(#linear-gradient-15)"/><path d="M753.38,2087.19q-14.68,267.53-24,544.9Q722.49,2840.2,719.19,3043l-49,6.06A571.1,571.1,0,0,1,619,2917c-17.46-70-13.42-111.56-21.07-184.11-8.59-81.36-21.07-99.09-43.17-201.73-44.86-208.3-67.29-312.45-17.25-377.24C553.8,2132.91,604.73,2080.15,753.38,2087.19Z" transform="translate(0 0)" fill="url(#linear-gradient-16)"/><path d="M515.12,1639a762.23,762.23,0,0,1,163.11-27.24c98-5.54,147-8.31,181.74,15,80.21,53.91,18.12,178.32,51,486.74,4.68,44,5.74,88.4,9.13,132.56,5.62,73.12,6.9,77.09,1.82,84.5C890,2377,771,2306.89,596.51,2334.6c-97.61,15.5-141.89,51.21-168.63,25.45-31.19-30-4.44-110.83,18.59-180.38,26.44-79.83,42.77-80.86,57.77-141,15.69-62.84,6.2-95.2,3.76-194.29A1756.55,1756.55,0,0,1,515.12,1639Z" transform="translate(0 0)" fill="url(#linear-gradient-17)"/><g opacity="0.3"><path d="M752.37,2218c-45.6-3.57-75.18,22.21-114.54,2.12-54-27.55-71.32-113.27-67.88-173.94,5.22-92.17,57.86-116.47,48.79-176.05-4.91-32.23-27.92-75-110.52-118.71-1.1,36.78-.89,68.14-.27,93,2.44,99.09,11.93,131.45-3.76,194.29-15,60.12-31.33,61.15-57.77,141-23,69.55-49.78,150.34-18.59,180.38,26.74,25.76,71-10,168.63-25.45,150.33-23.88,259.44,24.79,307.18,9C846,2248.31,793.68,2221.19,752.37,2218Z" transform="translate(0 0)" fill="url(#linear-gradient-18)"/></g><path d="M577.32,1645.28c-32.56-26.76-98.05,3.53-115.55,11.63-97.62,45.15-185.26,166.83-163.55,295.41,3.26,19.29,18.36,109.49,94.74,153.19,68.92,39.44,162,29.3,236.54-26.56l30.57-27.12,30.07-32.51A241.3,241.3,0,0,0,610,1975.17c-49.58-16-85.67,12.71-108.68-9.12-15.87-15.06-15.91-41.66-12-57.78,7.91-32.5,36.55-41.63,60.46-64.7C606,1789.39,616.32,1677.32,577.32,1645.28Z" transform="translate(0 0)" fill="url(#linear-gradient-19)"/><polygon points="1045.34 2065.07 608.82 2058.55 724.9 2114.57 1046.46 2093.53 1045.34 2065.07" fill="url(#linear-gradient-20)"/><path d="M593.42,2070.14h0a19.44,19.44,0,0,0,12.78,18.26l139.48,54.68.63-37.91-137.5-46.63a12.06,12.06,0,0,0-14.92,8.26A12.19,12.19,0,0,0,593.42,2070.14Z" transform="translate(0 0)" fill="url(#linear-gradient-21)"/><path d="M660.68,2044.31c-2.68-.6,13-31.94,25.4-28.32s72.75,38.62,78.24,53l5.49,14.41s-26.35,2.06-42.69-3.43S682.42,2049.17,660.68,2044.31Z" transform="translate(0 0)" fill="url(#linear-gradient-22)"/><path d="M757.9,1839.18l-30.77,280.16c-1.06,9.67,12.47,24.07,22.19,23.61l451.36-27.71a15.82,15.82,0,0,0,14.85-13.13l56.66-270.58c1.69-9.85-16-20-26-19.74l-473,13.3A15.82,15.82,0,0,0,757.9,1839.18Z" transform="translate(0 0)" fill="url(#linear-gradient-23)"/><path d="M768.22,1847.35l-30.77,280.16a15.85,15.85,0,0,0,16.48,17.54L1211,2123.41a15.82,15.82,0,0,0,14.85-13.13l46.7-271.82a15.8,15.8,0,0,0-16-18.5l-473,13.3A15.83,15.83,0,0,0,768.22,1847.35Z" transform="translate(0 0)" fill="url(#linear-gradient-24)"/><path d="M1036.62,2057.76c-39.91-16.92-25.82-49.18-73-89.37-62.18-53-125.55-30-147.74-71.14-6.91-12.8-10.21-32.72,1.83-65l-34.26,1a15.83,15.83,0,0,0-15.28,14.09L737.4,2127.55a15.83,15.83,0,0,0,14,17.46,15.4,15.4,0,0,0,2.45.08L1211,2123.45a15.82,15.82,0,0,0,14.85-13.13l6.44-37.51a172.67,172.67,0,0,0-49.77-18.66C1115.48,2040.51,1082.57,2077.23,1036.62,2057.76Z" transform="translate(0 0)" opacity="0.3" fill="url(#linear-gradient-25)" style="isolation:isolate"/><path d="M1239.82,2084.22a3.56,3.56,0,0,0-2.23-4.51,3.62,3.62,0,0,0-1-.19c-9.66-.49-32.06-.69-44.43,6.88-16.07,9.84-36.85,27.8-19.35,36.87l16.34,8.46a3.48,3.48,0,0,0,2.39.33c5.8-1.28,30.24-6.7,32.91-8C1226.9,2122.79,1236.22,2095.14,1239.82,2084.22Z" transform="translate(0 0)" fill="url(#linear-gradient-26)"/><path d="M685.55,1504.63a339.8,339.8,0,0,1-6.06,67.88c-3.51,18.08-6,22.75-9.28,26.55-4.86,5.7-12.23,10.49-53.86,20.81-22.66,5.62-25.58,5.47-26.08,7.71-2.44,11,59.34,48.36,123.17,39.35,39.07-5.52,74.61-27.8,72.43-39.51S744.65,1622,733,1600.65c-8.09-14.82,1-35.86,11.7-53.29C734.34,1527.9,695.93,1524.09,685.55,1504.63Z" transform="translate(0 0)" fill="url(#linear-gradient-27)"/><path d="M758.06,1516.12c9.22-12.25,9.79-33.63-.84-47.14-9.14-11.63-23.52-13.29-32.14-14.29-25-2.88-56.44,7.54-67.4,30.51-6.49,13.61,7.55,41.9,9.75,47,2.49,5.75,7,7.72,11.18,12.07,5.79,6,14.85,15.62,29.63,31.65a104,104,0,0,1,5.67-16.94,91.23,91.23,0,0,1,11.86-19.9C738.77,1523.2,749.32,1527.73,758.06,1516.12Z" transform="translate(0 0)" fill="url(#linear-gradient-28)"/><path d="M687.15,1562.41s16.41,26.92,49.07,24.8c29.25-1.91,33.53-67.5,14.85-81.41-6.23-4.65-18.71-6.58-28.86-3.73-6,1.68-8,4.17-17.87,6.72-9.09,2.36-11.65,1.35-14.39,3.66-3.43,2.89-6,10-.22,29.14-5.58-5.65-12.28-7.82-17-5.58a9.94,9.94,0,0,0-3.9,3.79C664.68,1547.3,671.57,1556.86,687.15,1562.41Z" transform="translate(0 0)" fill="url(#linear-gradient-29)"/><path d="M688.62,1508.53c1.41,1-2.9,6.31-3.22,13.76-.62,14.46,14,31.81,28.94,33.28,8.82.87,11.25-4.45,25.84-6a67,67,0,0,1,21.28,1.23c4.59,15.86.27,31.66-10.32,39-11.41,7.9-26,3.1-32.08,1.1-4.08-1.34-17.14-5.61-24-17.59-7.11-12.48-.13-20-8.29-28.45-4.12-4.26-9.53-6.1-14.79-14.34a41.94,41.94,0,0,1-3-5.56C676.59,1517,686.58,1507,688.62,1508.53Z" transform="translate(0 0)" fill="url(#linear-gradient-30)"/><path d="M750.85,1556.69s-6.32,3.3-17.24,2.68c-.53,0-1.11.13-1.18.4-.25,1,6.75,5.68,13.2,3.87,4.59-1.29,8.15-5.63,7.53-6.73C752.9,1556.44,751.87,1556.5,750.85,1556.69Z" transform="translate(0 0)" fill="url(#linear-gradient-31)"/><path d="M1402,3069.59c-23.3-1.85-53.12-8.33-81.73-27-31-20.24-71.28-61.84-60.76-88.05,3.93-9.79,15.24-18.17,25.19-17.37,14.69,1.18,16.4,21.59,41.91,43.79,4.72,4.1,29.1,25.31,41.21,18.16,6-3.55,7.81-13.4,6.83-20.88-2.87-21.89-29.6-25.25-55.29-48.94-26-24-47.75-65.93-35.34-94.26,7.13-16.28,26-29.14,38.39-25.52,5.3,1.54,8.66,5.87,24.75,40.63,13.21,28.53,16.15,36.85,24.66,39.56,8.77,2.78,22.39-.71,27.57-9.35,13.49-22.48-44.81-55.69-50.1-118.62-2.37-28.2,5.26-70,30.8-79,17.26-6,41.86,3.2,50.75,19,8,14.28-1.72,25,4.39,57.1,1.86,9.74,5.68,29.77,13.74,30.82,9.46,1.23,20-24.31,22.49-30.53,18.42-46.83-2.7-70.91,14.66-93.64,13.55-17.72,43-24.84,66.36-15.89,20.42,7.83,36.77,28.21,37.86,49.32,1.11,21.48-17,42.87-53.1,85.64-17.13,20.28-30.77,34-30,54.15.38,9.83,4.27,23.65,11.31,24.91,15.54,2.79,23.19-59.77,60-69.43,18.84-5,42.26,4.77,52.56,21.76,12.61,20.82,4.16,50.32-11.68,65.83-20.67,20.24-41.87,4.86-80.76,26.6-17.25,9.65-44.37,30.16-40.4,47.13,1.73,7.39,9.47,14.62,18,15.59,19,2.16,25.34-29.06,56-42.78,22.07-9.89,52.57-8.82,59.82,3.63,10.23,17.56-26.11,57.44-45.42,75.06C1563.23,3028.35,1508.16,3068.75,1402,3069.59Z" transform="translate(0 0)" fill="url(#linear-gradient-32)"/><path d="M1412.43,3059.58c-3.07-52.21,31.51-158.55,56.67-208.83,24.62-49.19,48.17-127,48.4-127.8l1.54.47c-.24.78-23.83,78.73-48.51,128-25.08,50.12-59.56,156.07-56.5,208Z" transform="translate(0 0)" fill="#fff" opacity="0.5" style="isolation:isolate"/><path d="M1347,3076.4c-17.54-24.37-43.28-68.32-47.9-127.13-1.9-24.23-5.61-71.56,23.34-112.38,14.43-20.35,45-50.45,65.71-41.76,13.31,5.58,21.57,26.83,17.81,43s-17.55,17.8-32.55,45.45c-5.55,10.23-11.89,22.24-7,29,4.07,5.67,15.24,6.7,23.62,3.3,17.3-7,11.9-28.56,30.6-44,13.31-11,35.48-16.16,45-7.16,8.31,7.82,6.86,26.07-.48,38.24-11.76,19.49-32.84,13.77-46.58,35.07-6.1,9.45-10.43,23.73-5.09,29.37,6.08,6.43,24,.87,35.44-6.24,15.14-9.39,15.7-19.37,25.67-20.62,11.12-1.4,25,9.19,27.2,20.91,3,16.41-17.09,34.11-33,41.8-20.42,9.85-35.58,4.07-45.55,17.52-3.66,4.94-7,13-4,17.89,4.28,7,19.75,4.67,30,3.14,25-3.72,31.89-12.79,40.85-8.38s13.74,19.52,9.82,30.09c-2.18,5.87-8.73,15-41.18,20.66C1436.07,3088.15,1397.91,3091,1347,3076.4Z" transform="translate(0 0)" fill="url(#linear-gradient-33)"/><path d="M2601.33,1264.74c0,215.5-173.65,401.81-388.51,416.17-215.6,14.41-390.92-149.64-390.92-366.48s175.32-403.24,390.92-416.32C2427.68,885.08,2601.33,1049.25,2601.33,1264.74Z" transform="translate(0 0)" fill="url(#linear-gradient-34)"/><path d="M2199.09,1501.31c-16.9,1.11-32.62-6.76-41.37-20.8L2010.81,1244.6c-13.77-22.11-6.35-52.39,16.56-67.63s52.6-9.67,66.35,12.43l101.89,163.76,134.44-273.8c12.06-24.57,41-35.84,64.72-25.18s33.09,39.19,21,63.75L2242.08,1472a52.38,52.38,0,0,1-41.29,29.14Z" transform="translate(0 0)" fill="#fff"/><path d="M905.9,195.15c0,114.47-92.25,213.44-206.39,221.07C585,423.88,491.85,336.73,491.85,221.54S585,7.33,699.51.38C813.68-6.54,905.9,80.67,905.9,195.15Z" transform="translate(0 0)" fill="url(#linear-gradient-35)"/><path d="M691.85,280.1V266.89c0-1.54.08-3,.15-4.24v.09q.09-4.62.14-9.59t0-10.47q0-10.6-.24-22T690.5,197q-1.15-12.3-3.57-25.46a232,232,0,0,0-6.84-27.34l22.46-7.33A271.51,271.51,0,0,1,710.22,167q2.74,14.41,4,27.58t1.59,25.21q.29,12.06.29,23.14v10.56q0,5.06-.14,9.69-.11,1.94-.15,4.2v12.68Z" transform="translate(0 0)" fill="#fff"/><path d="M1566.79,195.15c0,114.47-92.25,213.44-206.39,221.07-114.53,7.66-207.66-79.49-207.66-194.68S1245.87,7.33,1360.4.38C1474.54-6.54,1566.79,80.67,1566.79,195.15Z" transform="translate(0 0)" fill="url(#linear-gradient-36)"/><path d="M1415.37,137.48c.2.58.61,2,1.26,4.15s1.28,4.8,1.93,7.86,1.22,6.33,1.73,9.83a69.49,69.49,0,0,1,.77,10.08,41.9,41.9,0,0,1-3.28,17.26,36,36,0,0,1-8.48,12.1,33.85,33.85,0,0,1-11.81,7.09,40.21,40.21,0,0,1-13.26,2.31,42.65,42.65,0,0,1-12-1.59,46.39,46.39,0,0,1-10.17-4.29q.87,8.39,1.35,16.68t.67,17.51q.2,9.19.24,19.91t0,23.91H1340.6V257q0-11.38-.34-24.06t-1.79-26.66q-1.44-14-4.43-29.32a289,289,0,0,0-8.29-32l22.85-7.33,4,11.76c.32,1,.85,2.49,1.59,4.58a73.52,73.52,0,0,0,2.94,7,76.68,76.68,0,0,0,4.39,8,43.06,43.06,0,0,0,5.93,7.52A29.88,29.88,0,0,0,1375,182a19.94,19.94,0,0,0,9.31,2.17,20.47,20.47,0,0,0,3.32-.39,10.81,10.81,0,0,0,4.34-1.88,12.68,12.68,0,0,0,3.81-4.48,16.91,16.91,0,0,0,1.64-8.1,47.3,47.3,0,0,0-.48-6.51c-.32-2.35-.72-4.64-1.21-6.85s-1-4.3-1.54-6.26-1-3.63-1.49-5Z" transform="translate(0 0)" fill="#fff"/><path d="M2267.08,195.15c0,114.47-92.24,213.44-206.38,221.07C1946.17,423.88,1853,336.73,1853,221.54S1946.17,7.33,2060.68.38C2174.84-6.54,2267.08,80.67,2267.08,195.15Z" transform="translate(0 0)" fill="url(#linear-gradient-37)"/><path d="M2135.18,137.48l1.68,7.43q.91,4,1.64,8.53c.48,3,.89,6.08,1.21,9.26s.48,6.39.48,9.59a52,52,0,0,1-1.74,13.6,32.79,32.79,0,0,1-5.44,11.38,26.73,26.73,0,0,1-9.5,7.81,30.82,30.82,0,0,1-13.89,2.89,36,36,0,0,1-6.22-.58,31.9,31.9,0,0,1-6.7-2,34.49,34.49,0,0,1-6.7-3.77,32.39,32.39,0,0,1-6.32-6,30.89,30.89,0,0,1-9.79,8.29,44.68,44.68,0,0,1-10.17,3.86h.1a18,18,0,0,1-3.18.53c-1.16.09-2.32.14-3.48.14a29.93,29.93,0,0,1-4.43-.34,24.83,24.83,0,0,1-4.34-1q1.24,14.85,1.49,28t.25,24v21h-23.92V261q0-11.38-.24-25.56t-1.64-29.55q-1.39-15.39-4.24-31a185.08,185.08,0,0,0-8-30l22.66-7.52q1,3.27,1.83,6c.58,1.82,1.12,3.63,1.64,5.49s1,3.83,1.59,5.89,1.14,4.43,1.78,7.13a60.76,60.76,0,0,0,2.61,7.67,41.68,41.68,0,0,0,3.81,7.28,22.35,22.35,0,0,0,4.91,5.4,7.44,7.44,0,0,0,10.18.29,12,12,0,0,0,3.37-4.44,29.47,29.47,0,0,0,2.27-7.62,66.57,66.57,0,0,0,.82-11.37v-7.29c0-1.2-.11-2.52-.24-4l-.48-5.49,23.72-2.12q1.16,11.76,2.31,20.1a86.37,86.37,0,0,0,2.8,13.6c1.09,3.5,2.49,6.06,4.19,7.66a9.11,9.11,0,0,0,6.51,2.41,7.11,7.11,0,0,0,5.59-2.89c1.61-1.93,2.42-4.63,2.41-8.1a71.41,71.41,0,0,0-.48-8c-.32-2.77-.7-5.43-1.15-8s-.94-4.95-1.45-7.13-1-4-1.45-5.4Z" transform="translate(0 0)" fill="#fff"/></g></svg>